<svg width="150" height="150" viewBox="0 0 150 150" fill="none" xmlns="http://www.w3.org/2000/svg">
<path d="M9.08203 79.8255H18.6349C23.8957 79.8255 28.1604 75.5608 28.1604 70.3C28.1604 65.0391 32.4252 60.7744 37.686 60.7744H50.6408C58.8478 60.7744 65.5008 54.1213 65.5008 45.9144C65.5008 37.7075 58.8478 31.0544 50.6408 31.0544" stroke="#0F73F6" stroke-width="3.5" stroke-miterlimit="10" stroke-linejoin="round"/>
<path d="M105.51 114.551C117.96 114.551 128.053 104.458 128.053 92.0078C128.053 82.3946 122.035 74.1868 113.561 70.9454" stroke="#0F73F6" stroke-width="3.5" stroke-miterlimit="10" stroke-linejoin="round"/>
<path d="M94.4082 69.465H70.1551C65.2918 69.465 61.3494 73.4074 61.3494 78.2707C61.3494 83.134 57.4069 87.0765 52.5436 87.0765H51.2373C43.6505 87.0765 37.5002 93.2268 37.5002 100.813C37.5 108.401 43.6502 114.551 51.237 114.551" stroke="#0F73F6" stroke-width="3.5" stroke-miterlimit="10" stroke-linejoin="round"/>
<path d="M92.9627 114.551V120.996C92.9627 124.556 90.077 127.441 86.5174 127.441H63.4822C59.9226 127.441 57.0369 124.556 57.0369 120.996V114.551" stroke="#0F73F6" stroke-width="3.5" stroke-miterlimit="10" stroke-linejoin="round"/>
<path d="M118.117 65.2964L103.066 54.7577" stroke="#0F73F6" stroke-width="3.5" stroke-miterlimit="10" stroke-linejoin="round"/>
<path d="M133.887 140.332H16.1133C8.99385 140.332 3.22266 134.561 3.22266 127.441V114.551H146.777V127.441C146.777 134.561 141.006 140.332 133.887 140.332Z" stroke="#0F73F6" stroke-width="3.5" stroke-miterlimit="10" stroke-linecap="round" stroke-linejoin="round"/>
<path d="M95.6296 69.3618C98.85 61.6342 104.446 51.7046 111.637 41.434C125.931 21.0211 141.115 6.99202 145.552 10.099C149.989 13.2059 141.999 32.2726 127.706 52.6855C120.489 62.9924 113.045 71.6719 106.871 77.3397" stroke="#0F73F6" stroke-width="3.5" stroke-miterlimit="10" stroke-linecap="round" stroke-linejoin="round"/>
<path d="M83.4246 84.0279C84.271 88.3743 83.2277 92.6432 80.8743 95.9942C89.3091 99.397 99.2282 96.8655 104.929 89.3945C109.2 83.7976 108.194 75.7005 102.423 71.6687C96.8938 67.8059 89.2793 69.1518 85.4094 74.6783C83.4281 77.5081 82.8126 80.8855 83.4246 84.0279Z" stroke="#0F73F6" stroke-width="3.5" stroke-miterlimit="10" stroke-linecap="round" stroke-linejoin="round"/>
<path d="M140.918 114.551V42.7734C140.918 40.1089 140.029 37.6521 138.531 35.6836" stroke="#0F73F6" stroke-width="3.5" stroke-miterlimit="10" stroke-linejoin="round"/>
<path d="M119.241 31.0547H20.8008C14.3288 31.0547 9.08203 36.3015 9.08203 42.7734V114.551" stroke="#0F73F6" stroke-width="3.5" stroke-miterlimit="10" stroke-linejoin="round"/>
</svg>
