<svg width="56" height="56" viewBox="0 0 56 56" fill="none" xmlns="http://www.w3.org/2000/svg">
<rect width="56" height="56" rx="28" fill="#F1F1F1"/>
<path fill-rule="evenodd" clip-rule="evenodd" d="M28.2244 21.2533C30.3321 21.2533 31.7539 22.1456 32.5646 22.8911L35.7324 19.86C33.7868 18.0878 31.255 17 28.2244 17C23.8345 17 20.0431 19.4689 18.1973 23.0622L21.8265 25.8244C22.7369 23.1722 25.2562 21.2533 28.2244 21.2533Z" fill="#EA4335"/>
<path fill-rule="evenodd" clip-rule="evenodd" d="M39.0001 28.2445C39.0001 27.3401 38.9253 26.6801 38.7632 25.9957H28.2246V30.0779H34.4106C34.2858 31.0923 33.6124 32.6201 32.1158 33.6467L35.6577 36.3356C37.7779 34.4167 39.0001 31.5934 39.0001 28.2445Z" fill="#4285F4"/>
<path fill-rule="evenodd" clip-rule="evenodd" d="M21.839 30.1757C21.602 29.4912 21.4648 28.7579 21.4648 28.0001C21.4648 27.2423 21.602 26.509 21.8265 25.8246L18.1973 23.0624C17.4365 24.5535 17 26.2279 17 28.0001C17 29.7723 17.4365 31.4468 18.1973 32.9379L21.839 30.1757Z" fill="#FBBC05"/>
<path fill-rule="evenodd" clip-rule="evenodd" d="M28.2247 39C31.2553 39 33.7995 38.0222 35.6578 36.3356L32.1159 33.6467C31.168 34.2945 29.8959 34.7467 28.2247 34.7467C25.2565 34.7467 22.7372 32.8278 21.8392 30.1756L18.21 32.9378C20.0558 36.5311 23.8347 39 28.2247 39Z" fill="#34A853"/>
</svg>
