<svg width="56" height="56" viewBox="0 0 56 56" fill="none" xmlns="http://www.w3.org/2000/svg">
<rect width="56" height="56" rx="28" fill="#E7EDFB"/>
<path d="M37.8988 24.2978C37.8122 23.164 36.9468 21.7105 36.0815 21.0128C35.1083 20.2988 34.0972 19.6389 33.0526 19.036C32.0159 18.4168 30.9471 17.8539 29.8507 17.3499C29.265 17.1091 28.637 16.9904 28.0045 17.001C27.3719 16.9876 26.7433 17.1064 26.1584 17.3499C25.0622 17.8543 23.9934 18.4171 22.9565 19.036C21.2834 20.0535 19.9277 21.0128 19.9277 21.0128C19.2072 21.6205 18.6635 22.4048 18.3436 23.2822C18.2864 23.4391 18.4064 23.6 18.5734 23.6H19.9565C20.1423 23.6 20.3107 23.4957 20.4082 23.3375C20.6545 22.9377 20.965 22.5768 21.3307 22.2705C21.3307 22.2705 22.4501 21.4838 23.8315 20.6495C24.6876 20.142 25.5701 19.6805 26.4752 19.2669C26.9581 19.0673 27.4772 18.9699 27.9995 18.9808C28.5217 18.9722 29.0403 19.0695 29.5239 19.2669C30.4292 19.6802 31.3117 20.1417 32.1676 20.6495C33.0301 21.1439 33.865 21.685 34.6685 22.2705C35.383 22.8426 36.0975 24.0345 36.169 24.9642C36.169 24.9642 36.3357 26.3468 36.3595 27.9844C36.3581 28.9958 36.3024 30.0064 36.1928 31.0119C36.0266 32.0646 35.4851 33.0215 34.6685 33.7055C34.6685 33.7055 33.5491 34.516 32.1676 35.3504C31.3115 35.8579 30.429 36.3194 29.5239 36.733C29.0409 36.9326 28.5219 37.03 27.9995 37.019C27.4778 37.03 26.9593 36.9351 26.4752 36.7401C25.57 36.3268 24.6875 35.8653 23.8315 35.3575C22.4501 34.547 21.3307 33.7127 21.3307 33.7127C21.012 33.4576 20.6933 33.0791 20.4296 32.6557C20.333 32.5006 20.1665 32.3999 19.9838 32.3999H18.5793C18.4101 32.3999 18.2902 32.5644 18.3525 32.7217C18.6984 33.5944 19.3131 34.4712 19.9277 34.9667C19.9277 34.9667 21.2834 35.9842 22.9565 36.9726C23.9932 37.5918 25.062 38.1547 26.1584 38.6587C26.7447 38.8965 27.3727 39.0122 28.0045 38.9988C28.6372 39.0122 29.2658 38.8934 29.8507 38.65C30.9469 38.1456 32.0158 37.5828 33.0526 36.9639C34.7257 35.9464 36.0815 34.958 36.0815 34.958C37.0705 34.1238 37.7263 32.9569 37.9276 31.673C38.0604 30.4469 38.1278 29.2144 38.1295 27.981C38.1007 25.9839 37.8988 24.2978 37.8988 24.2978Z" fill="url(#paint0_linear_218_4217)"/>
<path d="M17.8799 25.5811C17.8799 25.3381 18.0769 25.1411 18.3199 25.1411H25.1399C25.3829 25.1411 25.5799 25.3381 25.5799 25.5811V26.9011C25.5799 27.1441 25.3829 27.3411 25.1399 27.3411H17.8799V25.5811Z" fill="#0066B3"/>
<path d="M17.8799 28.6606H31.7398C31.9829 28.6606 32.1798 28.8576 32.1798 29.1006V30.4206C32.1798 30.6636 31.9829 30.8606 31.7398 30.8606H18.3199C18.0769 30.8606 17.8799 30.6636 17.8799 30.4206V28.6606Z" fill="#EE2F53"/>
<defs>
<linearGradient id="paint0_linear_218_4217" x1="28.1834" y1="17" x2="28.1834" y2="38.9999" gradientUnits="userSpaceOnUse">
<stop stop-color="#0066B3"/>
<stop offset="0.354167" stop-color="#0066B3"/>
<stop offset="0.6875" stop-color="#EE2F53"/>
<stop offset="1" stop-color="#EE2F53"/>
</linearGradient>
</defs>
</svg>
