<svg width="151" height="150" viewBox="0 0 151 150" fill="none" xmlns="http://www.w3.org/2000/svg">
<path fill-rule="evenodd" clip-rule="evenodd" d="M100.475 98.7H74.1499C73.1749 98.7 72.4249 97.95 72.4249 96.975C72.4249 96.075 73.1749 95.25 74.1499 95.25H100.475V82.5H96.4249H96.3499H96.2749H96.1999H96.0499L95.8999 82.425H95.7499H95.5999H95.5249L95.3749 82.35H95.2249L95.0749 82.275H94.9999H94.8499L94.6999 82.2L94.6249 82.125H94.4749C94.3999 82.05 94.3249 82.05 94.2499 81.975C94.0999 81.975 93.9499 81.9 93.8749 81.825C92.1499 80.925 91.0249 79.125 91.0249 77.025V49.95C91.0249 48.225 91.7749 46.725 92.9749 45.75L93.1249 45.675L93.1999 45.6L93.2749 45.525H93.3499L93.4249 45.45L93.4999 45.375H93.5749V45.3H93.6499L93.7249 45.225H93.7999L93.8749 45.15H93.9499L94.0249 45.075C94.7749 44.7 95.5999 44.475 96.4249 44.475H100.475V41.925C100.475 39.9 98.8999 38.325 96.8749 38.325H54.1249C52.0999 38.325 50.5249 39.9 50.5249 41.925V51.3H76.8499C77.8249 51.3 78.5749 52.05 78.5749 53.025C78.5749 53.925 77.8249 54.75 76.8499 54.75H50.5249V67.5H54.5749H54.6499H54.7249H54.7999H54.8749H54.9499L55.0999 67.575H55.2499H55.3249H55.3999H55.4749H55.5499L55.6249 67.65H55.6999H55.7749L55.9249 67.725H55.9999H56.1499V67.8H56.2999L56.3749 67.875H56.4499H56.5249L56.6749 67.95L56.7499 68.025H56.8999V68.1H56.9749H57.0499L57.1249 68.175L57.2749 68.25L57.3499 68.325L57.4999 68.4H57.5749L57.6499 68.475L57.7249 68.55L57.7999 68.625L57.8749 68.7L57.9499 68.775L58.0999 68.85H58.1749V68.925H58.2499V69H58.3249V69.075C58.3999 69.15 58.4749 69.225 58.6249 69.3V69.375L58.7749 69.525L58.8499 69.6L58.9249 69.675V69.75L58.9999 69.9L59.0749 69.975L59.1499 70.05C59.1499 70.125 59.2249 70.2 59.2249 70.275L59.2999 70.35L59.3749 70.425V70.5L59.4499 70.575V70.65L59.5249 70.725V70.875L59.5999 70.95C59.5999 71.025 59.6749 71.1 59.6749 71.1V71.175V71.25H59.7499V71.325V71.4V71.475V71.55C59.8249 71.55 59.8249 71.625 59.8249 71.7L59.8999 71.85V72V72.15V72.225L59.9749 72.375V72.525V72.675V72.825V72.975V96.825V100.05C59.9749 100.35 59.9749 100.65 59.8999 100.875C59.8999 101.025 59.8999 101.175 59.8249 101.25C59.8249 101.4 59.7499 101.55 59.7499 101.7L59.6749 101.775V101.85V101.925L59.5999 102.075C59.5999 102.15 59.5249 102.225 59.5249 102.3L59.4499 102.375V102.45L59.3749 102.525L59.2999 102.6V102.675L59.2249 102.75V102.825V102.9H59.1499V102.975L59.0749 103.05V103.125H58.9999V103.2H58.9249V103.275C58.8499 103.35 58.8499 103.35 58.8499 103.425L58.6999 103.5L58.6249 103.575V103.65C57.6499 104.775 56.1499 105.525 54.5749 105.525H50.5249V108.075C50.5249 110.1 52.0999 111.675 54.1249 111.675H96.8749C98.8999 111.675 100.475 110.1 100.475 108.075V98.7ZM59.1499 70.05C59.1499 70.125 59.2249 70.2 59.2249 70.275L59.1499 70.05ZM104 138.975H46.9999C42.5749 138.975 38.9749 135.375 38.9749 131.025V121.5V105.525H27.4249H27.2749L27.1249 105.45H27.0499H26.8999H26.7499H26.5999L26.4499 105.375H26.3749H26.2999H26.2249L26.0749 105.3C23.7499 104.7 22.0249 102.6 22.0249 100.05V72.975C22.0249 69.975 24.4249 67.5 27.4249 67.5H38.9749V28.5V18.975C38.9749 14.625 42.5749 11.025 46.9999 11.025H104C108.425 11.025 112.025 14.625 112.025 18.975V28.425V28.5V28.575V44.475H123.575C126.575 44.475 128.975 46.95 128.975 49.95V77.025C128.975 80.025 126.575 82.5 123.575 82.5H112.025V121.5V131.025C112.025 135.375 108.425 138.975 104 138.975ZM40.6999 102.075H45.2749L42.3499 99.15L42.2749 99.075L32.7499 89.55L25.3999 96.975V100.05V100.125V100.2V100.275V100.35L25.4749 100.425V100.5V100.575V100.65L25.5499 100.725V100.8V100.875H25.6249V100.95V101.025L25.6999 101.1V101.175H25.7749V101.25L25.8499 101.325L25.9249 101.4L25.9999 101.475L26.0749 101.55V101.625H26.1499L26.2249 101.7L26.2999 101.775H26.3749L26.4499 101.85H26.5249L26.5999 101.925H26.6749H26.7499V102H26.8249H26.8999H26.9749L27.0499 102.075H27.1249H27.1999H27.2749H27.3499H27.4249H40.6999ZM94.4749 77.325V77.4V77.475V77.55V77.625C94.5499 77.625 94.5499 77.7 94.5499 77.775V77.85H94.6249V77.925V78H94.6999V78.075L94.7749 78.15V78.225H94.8499V78.3L94.9249 78.375C94.9999 78.45 94.9999 78.525 95.0749 78.525V78.6C95.4499 78.9 95.9749 79.05 96.4249 79.05H102.2H102.275H110.3H110.375H123.575C124.7 79.05 125.6 78.15 125.6 77.025V49.95C125.6 48.825 124.7 47.925 123.575 47.925H96.4249C95.5249 47.925 94.6999 48.6 94.4749 49.425V49.5V49.575V49.65V49.725V49.8H94.3999V49.875V49.95V77.025V77.1V77.175H94.4749V77.25V77.325ZM42.4249 105.525V119.775H108.575V82.5H103.925V96.9V96.975V97.05V108.075C103.925 111.975 100.775 115.125 96.8749 115.125H54.1249C50.2249 115.125 47.0749 111.975 47.0749 108.075V105.525H42.4249ZM42.4249 123.225V131.025C42.4249 133.5 44.4499 135.6 46.9999 135.6H104C106.55 135.6 108.575 133.5 108.575 131.025V123.225H42.4249ZM103.925 44.475H108.575V30.225H42.4249V67.5H47.0749V41.925C47.0749 38.025 50.2249 34.875 54.1249 34.875H96.8749C100.775 34.875 103.925 38.025 103.925 41.925V44.475ZM108.575 26.775V18.975C108.575 16.5 106.55 14.4 104 14.4H89.5999V15.9C89.5999 18.675 87.3499 20.85 84.6499 20.85H66.3499C63.6499 20.85 61.3999 18.675 61.3999 15.9V14.4H46.9999C44.4499 14.4 42.4249 16.5 42.4249 18.975V26.775H108.575ZM64.8499 14.4V15.9C64.8499 16.8 65.5249 17.475 66.3499 17.475H84.6499C85.4749 17.475 86.1499 16.8 86.1499 15.9V14.4H64.8499ZM81.8749 131.1H68.5249C67.6249 131.1 66.8749 130.35 66.8749 129.375C66.8749 128.475 67.6249 127.725 68.5249 127.725H81.8749C82.8499 127.725 83.5999 128.475 83.5999 129.375C83.5999 130.35 82.8499 131.1 81.8749 131.1ZM49.9999 102.075H54.5749C55.6249 102.075 56.5999 101.175 56.5999 100.05V97.575L51.4249 92.4L45.9499 97.95L49.0999 101.1L49.6999 101.7H49.7749V101.775C49.8499 101.85 49.9249 101.925 49.9999 102.075ZM56.5999 92.7V72.975C56.5999 72.6 56.5249 72.3 56.3749 72.075C56.2999 72 56.2999 72 56.2999 71.925L56.2249 71.85V71.775H56.1499V71.7L56.0749 71.625V71.55H55.9999L55.9249 71.475L55.8499 71.4L55.7749 71.325H55.6999V71.25H55.6249L55.5499 71.175H55.4749V71.1H55.3999C55.1749 71.025 54.8749 70.95 54.5749 70.95H27.4249C26.2999 70.95 25.3999 71.85 25.3999 72.975V92.1L31.5499 85.95C32.2249 85.275 33.3499 85.275 33.9499 85.95L43.5499 95.475L50.2249 88.8C50.8999 88.125 52.0249 88.125 52.6249 88.8L56.5999 92.7ZM94.4749 82.125C94.3999 82.05 94.3249 82.05 94.2499 81.975L94.4749 82.125ZM43.9999 87.9C40.3249 87.9 37.3249 84.9 37.3249 81.225C37.3249 77.55 40.3249 74.55 43.9999 74.55C47.6749 74.55 50.6749 77.55 50.6749 81.225C50.6749 84.9 47.6749 87.9 43.9999 87.9ZM43.9999 77.925C42.1999 77.925 40.6999 79.425 40.6999 81.225C40.6999 83.025 42.1999 84.525 43.9999 84.525C45.7999 84.525 47.2999 83.025 47.2999 81.225C47.2999 79.425 45.7999 77.925 43.9999 77.925ZM119.75 57.3H108.875C107.975 57.3 107.15 56.55 107.15 55.575C107.15 54.675 107.975 53.85 108.875 53.85H119.75C120.65 53.85 121.4 54.675 121.4 55.575C121.4 56.55 120.65 57.3 119.75 57.3ZM103.4 57.3H100.325C99.3499 57.3 98.5999 56.55 98.5999 55.575C98.5999 54.675 99.3499 53.85 100.325 53.85H103.4C104.375 53.85 105.125 54.675 105.125 55.575C105.125 56.55 104.375 57.3 103.4 57.3ZM119.75 65.175H116.975C116 65.175 115.25 64.425 115.25 63.525C115.25 62.55 116 61.8 116.975 61.8H119.75C120.65 61.8 121.4 62.55 121.4 63.525C121.4 64.425 120.65 65.175 119.75 65.175ZM110 65.175H100.325C99.3499 65.175 98.5999 64.425 98.5999 63.525C98.5999 62.55 99.3499 61.8 100.325 61.8H110C110.9 61.8 111.725 62.55 111.725 63.525C111.725 64.425 110.9 65.175 110 65.175ZM119.75 73.125H111.35C110.45 73.125 109.625 72.375 109.625 71.4C109.625 70.5 110.45 69.675 111.35 69.675H119.75C120.65 69.675 121.4 70.5 121.4 71.4C121.4 72.375 120.65 73.125 119.75 73.125ZM104.225 73.125H100.325C99.3499 73.125 98.5999 72.375 98.5999 71.4C98.5999 70.5 99.3499 69.675 100.325 69.675H104.225C105.125 69.675 105.95 70.5 105.95 71.4C105.95 72.375 105.125 73.125 104.225 73.125Z" fill="#0F73F6"/>
</svg>
